<?xml version="1.0" encoding="UTF-8"?>
<!DOCTYPE svg PUBLIC "-//W3C//DTD SVG 1.1//EN" "http://www.w3.org/Graphics/SVG/1.1/DTD/svg11.dtd">
<!-- Creator: CorelDRAW X8 -->
<svg xmlns="http://www.w3.org/2000/svg" xml:space="preserve" width="100px" height="100px" version="1.1" style="shape-rendering:geometricPrecision; text-rendering:geometricPrecision; image-rendering:optimizeQuality; fill-rule:evenodd; clip-rule:evenodd"
viewBox="0 0 100 100"
 xmlns:xlink="http://www.w3.org/1999/xlink">
 <defs>
  <style type="text/css">
   <![CDATA[
    .str0 {stroke:white;stroke-width:3.99924}
    .str2 {stroke:white;stroke-width:2.36222}
    .str1 {stroke:white;stroke-width:0.900007}
    .fil0 {fill:none}
    .fil1 {fill:white}
    .fil2 {fill:white;fill-rule:nonzero}
   ]]>
  </style>
 </defs>
 <g id="Warstwa_x0020_1">
  <metadata id="CorelCorpID_0Corel-Layer"/>
  <path class="fil0 str0" d="M88 32c3,5 4,9 5,15 2,23 -15,45 -39,48 -24,2 -45,-15 -48,-39 -3,-24 15,-45 39,-48 13,-1 27,4 37,14"/>
  <polygon class="fil1 str1" points="85,26 91,31 97,35 91,38 85,41 85,34 "/>
  <path class="fil0 str0" d="M49 9c-7,0 -13,9 -16,22m-1 39c4,14 10,23 17,23 8,0 14,-9 17,-23m0 -39c-3,-13 -9,-22 -17,-22"/>
  <path class="fil2 str1" d="M37 45c0,2 0,3 -1,4 -1,0 -2,1 -3,1l0 0c1,1 3,1 3,2 1,1 2,2 2,3 0,2 -1,3 -2,4 -2,1 -4,2 -6,2 -2,0 -4,-1 -6,-1l0 -3c1,0 2,1 3,1 1,0 2,0 3,0 1,0 2,0 3,-1 1,0 1,-1 1,-2 0,-1 0,-2 -1,-3 -1,0 -2,0 -4,0l-2 0 0 -3 2 0c3,0 5,-1 5,-3 0,-1 0,-2 -1,-2 -1,0 -1,-1 -2,-1 -1,0 -2,0 -2,1 -1,0 -2,0 -3,1l-1 -2c1,-2 3,-2 6,-2 2,0 3,0 4,1 1,1 2,2 2,3zm3 7c0,-7 3,-11 9,-11 1,0 2,0 3,0l0 3c-1,-1 -2,-1 -2,-1 -3,0 -4,1 -5,2 -1,1 -2,3 -2,5l0 0c1,0 1,-1 2,-1 1,-1 2,-1 3,-1 2,0 3,1 4,2 1,1 1,2 1,4 0,2 0,4 -1,5 -1,1 -3,2 -5,2 -1,0 -3,-1 -4,-1 -1,-1 -1,-2 -2,-3 -1,-1 -1,-3 -1,-5zm7 6c1,0 2,0 2,-1 1,-1 1,-2 1,-3 0,-1 0,-2 -1,-2 0,-1 -1,-1 -2,-1 -1,0 -1,0 -2,0 0,0 -1,1 -1,1 -1,1 -1,1 -1,2 0,1 1,2 1,3 1,1 2,1 3,1zm22 -7c0,3 -1,6 -2,7 -1,2 -3,3 -5,3 -2,0 -4,-1 -5,-3 -1,-1 -1,-4 -1,-7 0,-4 0,-6 1,-8 1,-1 3,-2 5,-2 2,0 4,1 5,2 1,2 2,4 2,8zm-10 0c0,2 0,4 1,5 0,2 1,2 2,2 1,0 2,0 3,-2 0,-1 1,-3 1,-5 0,-3 -1,-5 -1,-6 -1,-1 -2,-2 -3,-2 -1,0 -2,1 -2,2 -1,1 -1,3 -1,6z"/>
  <circle class="fil1 str2" cx="77" cy="45" r="3"/>
 </g>
</svg>
