<?xml version="1.0" encoding="utf-8"?>
<!-- Generator: Adobe Illustrator 17.0.0, SVG Export Plug-In . SVG Version: 6.00 Build 0)  -->
<!DOCTYPE svg PUBLIC "-//W3C//DTD SVG 1.1//EN" "http://www.w3.org/Graphics/SVG/1.1/DTD/svg11.dtd">
<svg version="1.1" id="Layer_1" xmlns="http://www.w3.org/2000/svg" xmlns:xlink="http://www.w3.org/1999/xlink" x="0px" y="0px"
	 width="366px" height="442px" viewBox="0 0 366 442" enable-background="new 0 0 366 442" xml:space="preserve">
<path opacity="0.55" fill-rule="evenodd" clip-rule="evenodd" fill="none" stroke="#38292f" stroke-width="4" stroke-miterlimit="22.9256" d="
	M183.793,437.684l-0.006-0.002l0,0l-0.004,0.002l-0.021-0.01C22.759,372.853,5.059,159.914,5.059,74.578
	c0-13.689,0-22.948,0.788-28.178C34.5,31.676,95.816,6.728,183.541,4.212l0.246-0.007l0,0l0.246,0.007
	c87.725,2.515,149.045,27.464,177.695,42.186c0.787,5.231,0.787,14.49,0.787,28.179c0,85.336-17.695,298.276-178.701,363.096
	L183.793,437.684L183.793,437.684z M354.264,99.886c0.086-1.554,0.174-3.081,0.244-4.57v-0.005c0.078-1.491,0.143-2.95,0.203-4.376
	v-0.005c0.063-1.423,0.119-2.816,0.164-4.169v-0.005c0.053-1.356,0.098-2.674,0.137-3.96v-0.003c0.041-1.283,0.072-2.529,0.1-3.738
	v-0.005c0.025-1.208,0.055-2.38,0.074-3.513v-0.003c0.024-1.132,0.037-2.225,0.045-3.278V72.25c0.014-1.051,0.027-2.063,0.033-3.033
	v-0.005c0.004-0.971,0.006-1.901,0.006-2.785v-0.005l-0.002-0.257v-0.005v-0.256v-0.005v-0.256v-0.005l-0.004-0.256v-0.004v-0.253
	v-0.005l-0.002-0.251v-0.004l-0.004-0.248v-0.009l-0.004-0.247v-0.006l-0.01-0.247v-0.005v-0.244v-0.007l-0.006-0.242v-0.003
	l-0.008-0.242v-0.008l-0.006-0.24v-0.003l-0.002-0.239v-0.003l-0.006-0.236v-0.007l-0.004-0.233v-0.005l-0.01-0.234v-0.003
	l-0.014-0.229v-0.006l-0.004-0.229v-0.003l-0.01-0.227v-0.003l-0.006-0.226v-0.004L355.16,61v-0.005l-0.006-0.218v-0.005
	l-0.006-0.216v-0.006l-0.014-0.212v-0.005l-0.01-0.213v-0.003l-0.006-0.208V59.9l-0.012-0.205v-0.004l-0.006-0.203v-0.005
	l-0.012-0.201v-0.007l-0.006-0.195v-0.003l-0.01-0.197v-0.006l-0.012-0.192v-0.003l-0.01-0.189v-0.003l-0.006-0.187v-0.003
	l-0.012-0.183v-0.007l-0.006-0.18v-0.004l-0.012-0.175v-0.004l-0.01-0.172v-0.005l-0.006-0.171v-0.004l-0.01-0.165v-0.007
	l-0.01-0.164V57.05l-0.006-0.158v-0.005l-0.01-0.154v-0.006l-0.006-0.152v-0.007l-0.008-0.147v-0.003l-0.006-0.145v-0.005
	l-0.006-0.142v-0.005l-0.014-0.137v-0.003l-0.004-0.135v-0.002l-0.006-0.131V55.71l-0.006-0.127v-0.004l-0.002-0.12v-0.004
	l-0.008-0.12v-0.003l-0.002-0.113v-0.005l-0.004-0.109V55.1l-0.004-0.107V54.99l-0.004-0.101v-0.005l-0.002-0.097v-0.004
	l-0.008-0.089v-0.008l-0.004-0.085v-0.002v-0.083V54.51v-0.077v-0.008v-0.07v-0.006v-0.012V54.33v-0.015v-0.003v-0.019V54.29v-0.015
	v-0.008v-0.014v-0.005V54.23v-0.004v-0.02V54.2v-0.019v-0.005v-0.019v-0.003v-0.021v-0.007v-0.021v-0.005v-0.023v-0.003V54.05
	v-0.002v-0.025v-0.005v-0.025v-0.005v-0.024v-0.007v-0.025v-0.004v-0.028v-0.005v-0.026v-0.003v-0.031v-0.004v-0.03v-0.005v-0.031
	v-0.004v-0.033V53.72v-0.032v-0.006v-0.033v-0.004v-0.036v-0.005v-0.039v-0.003v-0.037v-0.003v-0.039v-0.005v-0.04v-0.003v-0.042
	v-0.003v-0.044V53.34v-0.042v-0.005v-0.044v-0.005v-0.045v-0.003v-0.048v-0.003v-0.049v-0.003V53.04v-0.005v-0.048V52.98v-0.051
	v-0.003v-0.053v-0.005v-0.057v-0.005v-0.055v-0.003v-0.059v-0.003v-0.058v-0.005v-0.06v-0.005v-0.063V52.49v-0.063v-0.002v-0.066
	v-0.003v-0.066v-0.005v-0.066v-0.006v-0.068v-0.005v-0.07v-0.007V51.99v-0.003v-0.075V51.91v-0.078v-0.005v-0.074v-0.006v-0.079
	v-0.004v-0.078v-0.008v-0.081v-0.005v-0.082v-0.005v-0.087v-0.003v-0.087v-0.005v-0.09v-0.004l-2.422-1.206
	c-22.016-11.215-79.1-36.354-168.428-37.422l-0.238-0.001l0,0l-0.242,0.001C94.225,13.568,37.137,38.708,15.126,49.922l-2.427,1.206
	v0.004v0.089v0.005v0.087v0.005v0.085v0.005v0.082v0.006v0.081v0.007v0.078v0.005v0.078v0.006v0.076v0.003v0.078v0.002v0.075v0.005
	v0.07v0.007v0.07v0.005v0.068v0.006v0.066v0.005v0.066v0.005v0.064v0.005v0.061v0.005v0.063v0.005v0.06v0.005v0.06v0.005v0.056
	v0.003v0.057v0.003v0.057v0.007v0.051v0.005v0.052v0.004v0.05v0.004v0.051v0.005v0.048v0.003v0.048v0.003v0.045v0.005v0.044v0.005
	v0.042v0.005v0.044v0.003v0.042v0.003v0.04v0.005v0.039v0.004v0.037v0.003v0.037v0.006v0.035v0.004v0.035v0.004v0.032v0.005v0.034
	v0.003v0.031v0.005v0.03v0.004v0.031v0.003v0.026v0.005v0.028v0.004v0.025v0.007v0.024v0.006v0.023v0.005v0.025v0.004v0.022v0.003
	v0.023v0.005v0.021v0.007v0.021v0.003v0.019v0.005v0.021v0.003v0.02v0.006v0.017v0.003v0.014v0.008v0.015v0.005v0.017v0.003v0.016
	v0.005v0.015v0.003v0.074v0.005l-0.003,0.077v0.005v0.083v0.002l-0.003,0.085v0.008v0.089v0.006l-0.003,0.095v0.005l-0.002,0.101
	v0.004L12.683,55.1v0.005l-0.006,0.107v0.007v0.112v0.004l-0.01,0.119v0.004l-0.007,0.12v0.006l-0.003,0.125v0.003l-0.006,0.131
	v0.002l-0.006,0.135v0.003l-0.007,0.137v0.005l-0.007,0.142v0.005l-0.005,0.145v0.003l-0.01,0.147v0.009l-0.01,0.15v0.006
	l-0.006,0.154v0.006l-0.006,0.157v0.007l-0.007,0.162v0.008l-0.009,0.164v0.004l-0.007,0.171v0.005l-0.016,0.172v0.004l-0.003,0.175
	v0.004l-0.01,0.181v0.007l-0.009,0.183V58.3l-0.01,0.187v0.003l-0.009,0.189v0.006l-0.01,0.191v0.004l-0.009,0.197v0.003
	l-0.01,0.195v0.007l-0.007,0.202v0.003l-0.009,0.203v0.004l-0.01,0.208v0.005l-0.01,0.208v0.007l-0.005,0.212v0.003l-0.01,0.212
	v0.006l-0.006,0.218v0.003l-0.01,0.218V61l-0.009,0.221v0.006l-0.01,0.225v0.003l-0.003,0.227v0.003l-0.01,0.23v0.005l-0.005,0.229
	v0.003l-0.007,0.234v0.005l-0.01,0.233v0.007l-0.006,0.236v0.005l-0.006,0.237v0.006l-0.007,0.24v0.005l-0.003,0.242v0.003
	l-0.007,0.242v0.007l-0.003,0.246v0.003l-0.003,0.249v0.005l-0.003,0.247v0.009l-0.002,0.248v0.004l-0.003,0.251v0.005l-0.003,0.253
	v0.004l-0.003,0.256v0.005v0.256v0.005v0.256v0.005v0.259v0.003c0,0.886,0,1.816,0.007,2.785v0.005
	c0.006,0.97,0.013,1.981,0.025,3.033v0.008c0.013,1.05,0.033,2.144,0.048,3.275v0.003c0.023,1.133,0.045,2.305,0.078,3.513v0.005
	c0.026,1.209,0.058,2.455,0.097,3.738v0.005c0.038,1.285,0.083,2.603,0.131,3.959v0.005c0.049,1.353,0.104,2.746,0.169,4.169v0.005
	c0.058,1.426,0.129,2.884,0.2,4.376c4.177,83.595,29.57,269.71,168.71,331.003l1.982,0.793l0.031,0.012l0,0l0.033-0.012l1.979-0.793
	C322.457,366.117,349.393,185.51,354.264,99.886z"/>
<g opacity="0.55">
	<path fill="#38292f" d="M224.953,240.48c1.621,2.766,2.807,4.832,3.539,6.207c12.916,22.365,22.096,37.066,27.543,44.109
		c5.445,7.043,10.479,10.678,15.115,10.889c7.305,0.367,13-4.596,17.064-14.883c2.684,1.383,4.022,2.877,4.022,4.48
		c0,4.59-3.441,10.303-10.314,17.148c-6.883,6.842-12.645,10.262-17.283,10.262c-6.756,0-15.545-6.629-26.375-19.904
		c-10.826-13.273-21.592-30.627-32.297-52.074c-4.424,0.365-8.199,0.545-11.338,0.545c-3.053,0-6.914-0.18-11.578-0.545
		l-0.984,7.209l-1.588,12.562c-1.387,10.418-3.871,17.906-7.451,22.457c-3.582,4.551-10.531,9.008-20.85,13.381l28.795,1.488
		L166.31,316.57l-52.734-2.127l15.585-13.605l13.269,1.188c9.82-5.615,15.915-17.1,18.27-34.455l1.336-10.432l10.41-83.105
		c-7.893,1.335-14.945,2.948-21.16,4.845l-0.771,6.87l-1.438,12.805c-1.352,10.921-3.805,18.8-7.352,23.644
		c-3.545,4.85-10.35,9.58-20.422,14.191l34.674,1.488l-14.307,13.607l-58-2.125L98.985,234.9l1.255,0.115
		c-0.129-1.59-0.2-3.189-0.2-4.793c0-19.725,9.376-35.851,28.124-48.374c1.243-0.831,2.514-1.633,3.806-2.409l8.052-71.678h-20.174
		c-33.154,0-49.729,10.729-49.729,32.176c0,6.51,1.978,13.127,5.951,19.866l-19.375,18.117c-1.827-6.006-2.74-11.9-2.74-17.678
		c0-21.183,9.073-38.317,27.211-51.413c13.539-9.78,32.191-14.675,55.949-14.675h70.916c29.383,0,44.078-8.818,44.078-26.451
		c0-6.158-2.125-11.859-6.381-17.094l14.811-13.86c3.449,4.598,5.178,10.498,5.178,17.693c0,15.095-7.051,27.752-21.137,37.979
		c-14.08,10.23-31.486,15.341-52.201,15.341h-33.102l-7.01,62.397c14.082-4.725,30.193-7.093,48.352-7.093
		c40.1,0,60.156,11.427,60.156,34.28C260.775,214.027,248.836,228.402,224.953,240.48L224.953,240.48z M131.025,187.859
		c-9.599,6.314-14.402,14.24-14.402,23.775c0,6.067,1.199,11.588,3.593,16.563c4.802-6.707,7.971-16.194,9.511-28.456l1.19-10.918
		L131.025,187.859L131.025,187.859z M192.211,173.272L192.211,173.272l-7.93,63.628c6.498,0.959,12.43,1.43,17.801,1.43
		c5.037,0,10.521-0.471,16.455-1.43c14.549-9.354,21.828-20.696,21.828-34.009C240.365,183.145,224.309,173.272,192.211,173.272z"/>
</g>
</svg>
