<?xml version="1.0" encoding="UTF-8"?>
<!DOCTYPE svg PUBLIC "-//W3C//DTD SVG 1.1//EN" "http://www.w3.org/Graphics/SVG/1.1/DTD/svg11.dtd">
<!-- Creator: CorelDRAW X8 -->
<svg xmlns="http://www.w3.org/2000/svg" xml:space="preserve" width="40px" height="40px" version="1.1" style="shape-rendering:geometricPrecision; text-rendering:geometricPrecision; image-rendering:optimizeQuality; fill-rule:evenodd; clip-rule:evenodd"
viewBox="0 0 40 40"
 xmlns:xlink="http://www.w3.org/1999/xlink">
 <defs>
  <style type="text/css">
   <![CDATA[
    .str0 {stroke:#c6dbd6;stroke-width:2}
    .fil0 {fill:none}
   ]]>
  </style>
 </defs>
 <g id="Warstwa_x0020_1">
  <metadata id="CorelCorpID_0Corel-Layer"/>
  <path class="fil0 str0" d="M35 14l-3 2c0,1 -1,1 -1,0 -1,0 -2,-1 -4,-3 -2,-2 -2,-2 -3,-4 0,0 0,-1 0,-1l2 -2m-2 4l-8 3 -9 17 2 1 9 -9m12 -5l-2 8 -17 8 -2 -2m12 -12c1,1 1,2 0,3 0,1 -2,1 -3,0 -1,-1 -1,-2 0,-3 1,-1 3,-1 3,0z"/>
 </g>
</svg>
